<svg xmlns="http://www.w3.org/2000/svg" width="240" height="240" viewBox="0 0 240 240" fill="none">
  <!-- Original focal study. Every ring and registration mark stays inside the canvas. -->
  <circle cx="120" cy="120" r="97" fill="#ECEFF0"/>
  <g stroke="#B0B9BD" stroke-width="1">
    <circle cx="120" cy="120" r="97"/>
    <circle cx="120" cy="120" r="81"/>
    <circle cx="120" cy="120" r="65"/>
    <circle cx="120" cy="120" r="49"/>
    <circle cx="120" cy="120" r="33"/>
    <path d="M120 7V35M120 205V233M7 120H35M205 120H233"/>
  </g>
  <path d="M29 88A97 97 0 0 1 87 29" stroke="#8C989E" stroke-width="7"/>
  <path d="M151 212A97 97 0 0 0 212 151" stroke="#C4CDD1" stroke-width="7"/>
  <circle cx="120" cy="120" r="15" fill="#F0DC80"/>
  <circle cx="120" cy="120" r="3" fill="#535D62"/>
  <circle cx="177" cy="63" r="9" fill="#F0DC80"/>
  <g fill="#8C989E">
    <circle cx="43" cy="197" r="2"/>
    <circle cx="52" cy="205" r="2"/>
    <circle cx="62" cy="212" r="2"/>
  </g>
</svg>
