<svg xmlns="http://www.w3.org/2000/svg" viewBox="0 0 400 250" width="400" height="250" role="img" aria-label="고요한 방과 진동 파형을 표현한 추상 포스터">
  <defs><linearGradient id="room-bg" x1="0" y1="0" x2="1" y2="1"><stop stop-color="#070b14"/><stop offset="1" stop-color="#1a1438"/></linearGradient></defs>
  <rect width="400" height="250" fill="url(#room-bg)"/>
  <polygon points="0,250 92,56 142,250" fill="#8b5cf6" opacity="0.12"/>
  <rect x="138" y="44" width="124" height="162" rx="8" fill="#0a1323" stroke="#64748b" stroke-opacity="0.55"/>
  <polyline points="34,128 48,112 62,145 76,92 90,136 104,119 118,128 132,128 146,105 160,151 174,78 188,140 202,110 216,132 230,96 244,148 258,116 272,128 286,128 300,88 314,144 328,108 342,132 356,118 370,128" fill="none" stroke="#00d1ff" stroke-width="2" stroke-linecap="round" stroke-linejoin="round"/>
  <line x1="32" y1="220" x2="368" y2="220" stroke="#8b5cf6" stroke-opacity="0.35"/>
</svg>
